<svg width="24" height="24" viewBox="0 0 24 24" fill="none" xmlns="http://www.w3.org/2000/svg">
<path fill-rule="evenodd" clip-rule="evenodd" d="M11.9998 1.99194C6.98332 1.99315 2.74404 5.71093 2.08809 10.6844C1.43214 15.6578 4.56254 20.3476 9.40719 21.6494C14.2518 22.9512 19.3113 20.4621 21.2365 15.8297C21.5771 15.0101 20.7605 14.1859 19.9378 14.519C17.0309 15.696 13.6981 14.6296 12.0145 11.9838C10.3308 9.33798 10.7764 5.86725 13.0738 3.73251L13.1513 3.65272C13.7022 3.02306 13.2639 1.99994 12.3931 1.99994L12.1165 1.99865L12.0586 1.99363L11.9998 1.99194ZM10.1571 4.20694L10.0435 4.40828C8.58704 7.06627 8.62579 10.384 10.3271 13.0575L10.4771 13.2851C12.212 15.8296 15.1436 17.184 18.1014 16.9739L18.2731 16.9579L18.2177 17.0306C16.2722 19.4312 13.0436 20.5556 9.9262 19.7179C6.05048 18.6764 3.54616 14.9246 4.07092 10.9459C4.50636 7.64436 6.91563 5.03451 10.0161 4.24116L10.1571 4.20694Z" fill="#16181A"/>
</svg>
