<svg width="24" height="24" viewBox="0 0 24 24" fill="none" xmlns="http://www.w3.org/2000/svg">
<path d="M12 19C12.5128 19 12.9354 19.3865 12.9932 19.8838L13 20V21C13 21.5523 12.5523 22 12 22C11.4872 22 11.0646 21.6135 11.0068 21.1162L11 21V20C11 19.4477 11.4477 19 12 19ZM5.59277 16.9932C5.9833 16.6026 6.61631 16.6026 7.00684 16.9932C7.36731 17.3536 7.39484 17.9202 7.08984 18.3125L7.00684 18.4072L6.30664 19.1074C5.91608 19.4976 5.28297 19.4978 4.89258 19.1074C4.53212 18.747 4.5046 18.1794 4.80957 17.7871L4.89258 17.6934L5.59277 16.9932ZM16.9932 16.9932C17.3236 16.6628 17.8271 16.6122 18.2109 16.8408L18.3125 16.9102L18.4072 16.9932L19.1074 17.6934C19.4976 18.0839 19.4978 18.717 19.1074 19.1074C18.747 19.4679 18.1794 19.4954 17.7871 19.1904L17.6934 19.1074L16.9932 18.4072C16.6026 18.0167 16.6026 17.3837 16.9932 16.9932ZM12 7C14.7614 7 17 9.23858 17 12C17 14.7614 14.7614 17 12 17C9.23858 17 7 14.7614 7 12C7 9.23858 9.23858 7 12 7ZM12 9C10.3431 9 9 10.3431 9 12C9 13.6569 10.3431 15 12 15C13.6569 15 15 13.6569 15 12C15 10.3431 13.6569 9 12 9ZM4 11C4.55228 11 5 11.4477 5 12C5 12.5128 4.61355 12.9354 4.11621 12.9932L4 13H3C2.44772 13 2 12.5523 2 12C2 11.4872 2.38645 11.0646 2.88379 11.0068L3 11H4ZM21 11C21.5523 11 22 11.4477 22 12C22 12.5128 21.6135 12.9354 21.1162 12.9932L21 13H20C19.4477 13 19 12.5523 19 12C19 11.4872 19.3865 11.0646 19.8838 11.0068L20 11H21ZM17.6934 4.89258C18.0839 4.50244 18.717 4.50218 19.1074 4.89258C19.4679 5.25304 19.4954 5.8206 19.1904 6.21289L19.1074 6.30664L18.4072 7.00684C18.0167 7.39736 17.3837 7.39736 16.9932 7.00684C16.6327 6.64636 16.6052 6.07979 16.9102 5.6875L16.9932 5.59277L17.6934 4.89258ZM4.89258 4.89258C5.22299 4.56217 5.72745 4.51155 6.11133 4.74023L6.21289 4.80957L6.30664 4.89258L7.00684 5.59277C7.39736 5.9833 7.39736 6.61631 7.00684 7.00684C6.64636 7.36731 6.07979 7.39484 5.6875 7.08984L5.59277 7.00684L4.89258 6.30664C4.50244 5.91608 4.50218 5.28297 4.89258 4.89258ZM12 2C12.5128 2 12.9354 2.38645 12.9932 2.88379L13 3V4C13 4.55228 12.5523 5 12 5C11.4872 5 11.0646 4.61355 11.0068 4.11621L11 4V3C11 2.44772 11.4477 2 12 2Z" fill="#16181A"/>
</svg>
